<svg width="229" height="41" viewBox="0 0 229 41" fill="none" xmlns="http://www.w3.org/2000/svg">
<path d="M65.0424 11.256C65.2984 11.256 65.405 11.416 65.3624 11.736L62.1304 34.648C62.109 34.8827 61.9384 35 61.6184 35H58.3544C58.205 35 58.077 34.9573 57.9704 34.872C57.8637 34.7867 57.7464 34.6587 57.6184 34.488L49.3624 20.184C49.2984 20.056 49.2237 20.0027 49.1384 20.024C49.053 20.0453 48.989 20.1627 48.9464 20.376L46.9624 34.488C46.941 34.7013 46.8877 34.84 46.8024 34.904C46.717 34.968 46.557 35 46.3224 35H42.8024C42.6104 35 42.4824 34.936 42.4184 34.808C42.3544 34.68 42.333 34.5093 42.3544 34.296L45.5544 11.736C45.597 11.5227 45.6504 11.3947 45.7144 11.352C45.7784 11.288 45.9064 11.256 46.0984 11.256H49.9704C50.205 11.256 50.3757 11.3093 50.4824 11.416C50.6104 11.5013 50.717 11.6507 50.8024 11.864L58.3544 25.208C58.461 25.4 58.5784 25.4853 58.7064 25.464C58.8557 25.4213 58.941 25.2933 58.9624 25.08L60.8184 11.672C60.861 11.48 60.9144 11.3627 60.9784 11.32C61.0424 11.2773 61.1704 11.256 61.3624 11.256H65.0424ZM74.0276 35.32C72.4703 35.32 71.1156 35.0107 69.9636 34.392C68.833 33.752 67.9583 32.8773 67.3396 31.768C66.721 30.6373 66.4116 29.336 66.4116 27.864C66.4116 26.3707 66.6676 25.0053 67.1796 23.768C67.713 22.5093 68.4276 21.432 69.3236 20.536C70.2196 19.64 71.2543 18.9467 72.4276 18.456C73.6223 17.9653 74.8703 17.72 76.1716 17.72C77.729 17.72 79.073 18.0507 80.2036 18.712C81.3556 19.352 82.2303 20.248 82.8276 21.4C83.4463 22.5307 83.7556 23.8427 83.7556 25.336C83.7556 27.2347 83.329 28.9413 82.4756 30.456C81.6223 31.9707 80.4596 33.1653 78.9876 34.04C77.5156 34.8933 75.8623 35.32 74.0276 35.32ZM74.1556 32.056C75.0303 32.056 75.8196 31.768 76.5236 31.192C77.249 30.5947 77.825 29.7307 78.2516 28.6C78.6783 27.448 78.8916 26.04 78.8916 24.376C78.8916 23.224 78.657 22.36 78.1876 21.784C77.7183 21.1867 77.025 20.888 76.1076 20.888C75.233 20.888 74.433 21.1867 73.7076 21.784C72.9823 22.3813 72.4063 23.256 71.9796 24.408C71.553 25.56 71.3396 26.968 71.3396 28.632C71.3396 29.7627 71.5743 30.616 72.0436 31.192C72.513 31.768 73.217 32.056 74.1556 32.056ZM91.5326 35C90.1673 35 89.09 34.7013 88.3006 34.104C87.5113 33.4853 87.1166 32.6213 87.1166 31.512C87.1166 31.384 87.1166 31.256 87.1166 31.128C87.1166 31 87.1273 30.8613 87.1486 30.712L88.4286 21.816C88.45 21.6667 88.4073 21.5707 88.3006 21.528C88.2153 21.464 88.0873 21.432 87.9166 21.432H85.9326C85.6553 21.432 85.538 21.1973 85.5806 20.728L85.9326 18.392C85.954 18.2213 85.9966 18.1253 86.0606 18.104C86.146 18.0613 86.274 18.04 86.4446 18.04H88.6526C88.7593 18.04 88.8553 17.9973 88.9406 17.912C89.0473 17.8053 89.1113 17.688 89.1326 17.56L90.2846 12.696C90.3486 12.4187 90.5513 12.28 90.8926 12.28H94.3486C94.498 12.28 94.6046 12.3333 94.6686 12.44C94.7326 12.5467 94.754 12.7387 94.7326 13.016L94.0286 17.656C94.0073 17.7627 94.0286 17.848 94.0926 17.912C94.1566 17.976 94.242 18.008 94.3486 18.008H97.6446C97.8153 18.008 97.954 18.04 98.0606 18.104C98.1886 18.168 98.2313 18.2853 98.1886 18.456L97.8366 21.016C97.8153 21.1867 97.762 21.304 97.6766 21.368C97.6126 21.4107 97.4633 21.432 97.2286 21.432H93.8366C93.5593 21.432 93.3886 21.6027 93.3246 21.944L92.2366 29.688C92.2153 29.7947 92.2046 29.8907 92.2046 29.976C92.2046 30.0613 92.2046 30.1573 92.2046 30.264C92.2046 30.7547 92.3433 31.096 92.6206 31.288C92.9193 31.4587 93.3886 31.544 94.0286 31.544H95.7566C95.906 31.544 96.0233 31.6187 96.1086 31.768C96.2153 31.9173 96.258 32.0667 96.2366 32.216L95.9166 34.2C95.874 34.6053 95.6713 34.8293 95.3086 34.872C94.946 34.8933 94.53 34.9147 94.0606 34.936C93.6126 34.9573 93.1646 34.9787 92.7166 35C92.2686 35 91.874 35 91.5326 35ZM106.03 35.32C104.494 35.32 103.15 35.0107 101.998 34.392C100.846 33.752 99.9392 32.8773 99.2779 31.768C98.6379 30.6587 98.3179 29.368 98.3179 27.896C98.3179 26.5733 98.5525 25.3147 99.0219 24.12C99.5125 22.904 100.185 21.816 101.038 20.856C101.913 19.8747 102.937 19.1067 104.11 18.552C105.305 17.9973 106.617 17.72 108.046 17.72C109.518 17.72 110.798 18.0187 111.886 18.616C112.995 19.192 113.849 20.0347 114.446 21.144C115.065 22.2533 115.374 23.5973 115.374 25.176C115.374 25.4533 115.363 25.7413 115.342 26.04C115.321 26.3387 115.289 26.648 115.246 26.968C115.225 27.1387 115.161 27.2667 115.054 27.352C114.947 27.416 114.766 27.448 114.51 27.448H103.726C103.513 27.448 103.374 27.5867 103.31 27.864C103.246 28.1413 103.214 28.4613 103.214 28.824C103.214 29.848 103.545 30.6267 104.206 31.16C104.867 31.6933 105.71 31.96 106.734 31.96C107.545 31.96 108.302 31.8 109.006 31.48C109.71 31.1387 110.403 30.5947 111.086 29.848C111.193 29.7413 111.299 29.6987 111.406 29.72C111.534 29.72 111.673 29.752 111.822 29.816L113.934 30.808C114.361 31 114.435 31.2773 114.158 31.64C113.305 32.5787 112.462 33.3253 111.63 33.88C110.819 34.4133 109.955 34.7867 109.038 35C108.142 35.2133 107.139 35.32 106.03 35.32ZM110.094 24.888C110.307 24.888 110.489 24.8027 110.638 24.632C110.787 24.44 110.862 24.1093 110.862 23.64C110.862 22.872 110.627 22.2 110.158 21.624C109.71 21.0267 109.017 20.728 108.078 20.728C107.374 20.728 106.713 20.9093 106.094 21.272C105.475 21.6347 104.963 22.136 104.558 22.776C104.153 23.3947 103.907 24.0987 103.822 24.888H110.094ZM137.708 34.328C137.9 34.776 137.772 35 137.324 35H132.524C132.119 35 131.873 34.7867 131.788 34.36L128.012 24.312C127.948 24.1627 127.863 24.1413 127.756 24.248C127.671 24.3547 127.553 24.504 127.404 24.696L124.076 28.088C123.991 28.1733 123.905 28.2693 123.82 28.376C123.756 28.4827 123.713 28.6213 123.692 28.792L122.892 34.392C122.871 34.6267 122.796 34.7867 122.668 34.872C122.561 34.9573 122.369 35 122.092 35H117.836C117.601 35 117.452 34.9253 117.388 34.776C117.324 34.6267 117.303 34.4347 117.324 34.2L120.492 11.704C120.535 11.512 120.588 11.3947 120.652 11.352C120.716 11.288 120.823 11.256 120.972 11.256H125.58C125.729 11.256 125.847 11.3307 125.932 11.48C126.039 11.608 126.081 11.768 126.06 11.96L124.716 21.496C124.673 21.7093 124.684 21.7733 124.748 21.688C124.833 21.6027 124.929 21.496 125.036 21.368L134.156 11.672C134.327 11.48 134.476 11.3627 134.604 11.32C134.753 11.2773 134.977 11.256 135.276 11.256H139.532C139.831 11.256 140.001 11.32 140.044 11.448C140.087 11.5547 140.023 11.704 139.852 11.896L132.492 19.288C132.364 19.416 132.268 19.5333 132.204 19.64C132.161 19.7467 132.151 19.896 132.172 20.088L137.708 34.328ZM146.999 35.32C145.463 35.32 144.119 35.0107 142.967 34.392C141.815 33.752 140.908 32.8773 140.247 31.768C139.607 30.6587 139.287 29.368 139.287 27.896C139.287 26.5733 139.521 25.3147 139.991 24.12C140.481 22.904 141.153 21.816 142.007 20.856C142.881 19.8747 143.905 19.1067 145.079 18.552C146.273 17.9973 147.585 17.72 149.015 17.72C150.487 17.72 151.767 18.0187 152.855 18.616C153.964 19.192 154.817 20.0347 155.415 21.144C156.033 22.2533 156.343 23.5973 156.343 25.176C156.343 25.4533 156.332 25.7413 156.311 26.04C156.289 26.3387 156.257 26.648 156.215 26.968C156.193 27.1387 156.129 27.2667 156.023 27.352C155.916 27.416 155.735 27.448 155.479 27.448H144.695C144.481 27.448 144.343 27.5867 144.279 27.864C144.215 28.1413 144.183 28.4613 144.183 28.824C144.183 29.848 144.513 30.6267 145.175 31.16C145.836 31.6933 146.679 31.96 147.703 31.96C148.513 31.96 149.271 31.8 149.975 31.48C150.679 31.1387 151.372 30.5947 152.055 29.848C152.161 29.7413 152.268 29.6987 152.375 29.72C152.503 29.72 152.641 29.752 152.791 29.816L154.903 30.808C155.329 31 155.404 31.2773 155.127 31.64C154.273 32.5787 153.431 33.3253 152.599 33.88C151.788 34.4133 150.924 34.7867 150.007 35C149.111 35.2133 148.108 35.32 146.999 35.32ZM151.063 24.888C151.276 24.888 151.457 24.8027 151.607 24.632C151.756 24.44 151.831 24.1093 151.831 23.64C151.831 22.872 151.596 22.2 151.127 21.624C150.679 21.0267 149.985 20.728 149.047 20.728C148.343 20.728 147.681 20.9093 147.063 21.272C146.444 21.6347 145.932 22.136 145.527 22.776C145.121 23.3947 144.876 24.0987 144.791 24.888H151.063ZM165.749 35.32C164.213 35.32 162.869 35.0107 161.717 34.392C160.565 33.752 159.658 32.8773 158.997 31.768C158.357 30.6587 158.037 29.368 158.037 27.896C158.037 26.5733 158.271 25.3147 158.741 24.12C159.231 22.904 159.903 21.816 160.757 20.856C161.631 19.8747 162.655 19.1067 163.829 18.552C165.023 17.9973 166.335 17.72 167.765 17.72C169.237 17.72 170.517 18.0187 171.605 18.616C172.714 19.192 173.567 20.0347 174.165 21.144C174.783 22.2533 175.093 23.5973 175.093 25.176C175.093 25.4533 175.082 25.7413 175.061 26.04C175.039 26.3387 175.007 26.648 174.965 26.968C174.943 27.1387 174.879 27.2667 174.773 27.352C174.666 27.416 174.485 27.448 174.229 27.448H163.445C163.231 27.448 163.093 27.5867 163.029 27.864C162.965 28.1413 162.933 28.4613 162.933 28.824C162.933 29.848 163.263 30.6267 163.925 31.16C164.586 31.6933 165.429 31.96 166.453 31.96C167.263 31.96 168.021 31.8 168.725 31.48C169.429 31.1387 170.122 30.5947 170.805 29.848C170.911 29.7413 171.018 29.6987 171.125 29.72C171.253 29.72 171.391 29.752 171.541 29.816L173.653 30.808C174.079 31 174.154 31.2773 173.877 31.64C173.023 32.5787 172.181 33.3253 171.349 33.88C170.538 34.4133 169.674 34.7867 168.757 35C167.861 35.2133 166.858 35.32 165.749 35.32ZM169.813 24.888C170.026 24.888 170.207 24.8027 170.357 24.632C170.506 24.44 170.581 24.1093 170.581 23.64C170.581 22.872 170.346 22.2 169.877 21.624C169.429 21.0267 168.735 20.728 167.797 20.728C167.093 20.728 166.431 20.9093 165.813 21.272C165.194 21.6347 164.682 22.136 164.277 22.776C163.871 23.3947 163.626 24.0987 163.541 24.888H169.813ZM176.147 40.28C175.997 40.28 175.901 40.2053 175.859 40.056C175.816 39.9067 175.816 39.736 175.859 39.544L178.771 18.584C178.813 18.3493 178.867 18.2 178.931 18.136C179.016 18.072 179.197 18.04 179.475 18.04H182.995C183.229 18.04 183.4 18.072 183.507 18.136C183.635 18.2 183.677 18.3493 183.635 18.584L183.507 19.544C183.485 19.672 183.528 19.7253 183.635 19.704C183.763 19.6827 183.901 19.608 184.051 19.48C184.456 19.2027 184.872 18.9253 185.299 18.648C185.747 18.3707 186.248 18.1467 186.803 17.976C187.379 17.8053 188.04 17.72 188.787 17.72C190.429 17.72 191.784 18.2747 192.851 19.384C193.917 20.4933 194.451 22.1787 194.451 24.44C194.451 25.656 194.301 26.904 194.003 28.184C193.704 29.4427 193.235 30.616 192.595 31.704C191.976 32.792 191.155 33.6667 190.131 34.328C189.107 34.9893 187.869 35.32 186.419 35.32C185.544 35.32 184.755 35.16 184.051 34.84C183.347 34.4987 182.749 34.04 182.259 33.464C182.045 33.2293 181.875 33.1973 181.747 33.368C181.64 33.5173 181.565 33.7307 181.523 34.008L180.723 39.864C180.701 40.056 180.659 40.1733 180.595 40.216C180.552 40.2587 180.445 40.28 180.275 40.28H176.147ZM184.659 32.216C185.576 32.216 186.344 31.9493 186.963 31.416C187.581 30.8613 188.072 30.168 188.435 29.336C188.819 28.4827 189.096 27.5973 189.267 26.68C189.459 25.7627 189.555 24.92 189.555 24.152C189.555 23.32 189.427 22.6693 189.171 22.2C188.936 21.7093 188.605 21.3573 188.179 21.144C187.773 20.9307 187.293 20.824 186.739 20.824C186.12 20.824 185.533 20.9627 184.979 21.24C184.424 21.5173 183.965 21.8587 183.603 22.264C183.261 22.6693 183.069 23.0853 183.027 23.512L181.939 30.712C182.301 31.2027 182.696 31.576 183.123 31.832C183.549 32.088 184.061 32.216 184.659 32.216ZM203.999 35.32C202.463 35.32 201.119 35.0107 199.967 34.392C198.815 33.752 197.908 32.8773 197.247 31.768C196.607 30.6587 196.287 29.368 196.287 27.896C196.287 26.5733 196.521 25.3147 196.991 24.12C197.481 22.904 198.153 21.816 199.007 20.856C199.881 19.8747 200.905 19.1067 202.079 18.552C203.273 17.9973 204.585 17.72 206.015 17.72C207.487 17.72 208.767 18.0187 209.855 18.616C210.964 19.192 211.817 20.0347 212.415 21.144C213.033 22.2533 213.343 23.5973 213.343 25.176C213.343 25.4533 213.332 25.7413 213.311 26.04C213.289 26.3387 213.257 26.648 213.215 26.968C213.193 27.1387 213.129 27.2667 213.023 27.352C212.916 27.416 212.735 27.448 212.479 27.448H201.695C201.481 27.448 201.343 27.5867 201.279 27.864C201.215 28.1413 201.183 28.4613 201.183 28.824C201.183 29.848 201.513 30.6267 202.175 31.16C202.836 31.6933 203.679 31.96 204.703 31.96C205.513 31.96 206.271 31.8 206.975 31.48C207.679 31.1387 208.372 30.5947 209.055 29.848C209.161 29.7413 209.268 29.6987 209.375 29.72C209.503 29.72 209.641 29.752 209.791 29.816L211.903 30.808C212.329 31 212.404 31.2773 212.127 31.64C211.273 32.5787 210.431 33.3253 209.599 33.88C208.788 34.4133 207.924 34.7867 207.007 35C206.111 35.2133 205.108 35.32 203.999 35.32ZM208.063 24.888C208.276 24.888 208.457 24.8027 208.607 24.632C208.756 24.44 208.831 24.1093 208.831 23.64C208.831 22.872 208.596 22.2 208.127 21.624C207.679 21.0267 206.985 20.728 206.047 20.728C205.343 20.728 204.681 20.9093 204.063 21.272C203.444 21.6347 202.932 22.136 202.527 22.776C202.121 23.3947 201.876 24.0987 201.791 24.888H208.063ZM215.517 35C215.261 35 215.079 34.9253 214.973 34.776C214.866 34.6053 214.823 34.4133 214.845 34.2L217.053 18.488C217.074 18.296 217.117 18.1787 217.181 18.136C217.245 18.072 217.351 18.04 217.501 18.04H221.309C221.479 18.04 221.607 18.0933 221.693 18.2C221.778 18.3067 221.799 18.4773 221.757 18.712L221.533 20.152C221.511 20.3653 221.533 20.4827 221.597 20.504C221.682 20.504 221.799 20.44 221.949 20.312C222.439 19.7787 222.973 19.32 223.549 18.936C224.146 18.552 224.733 18.2533 225.309 18.04C225.906 17.8267 226.45 17.72 226.941 17.72C227.367 17.72 227.687 17.752 227.901 17.816C228.135 17.88 228.242 18.008 228.221 18.2L227.709 21.784C227.687 22.0187 227.645 22.168 227.581 22.232C227.538 22.296 227.453 22.3173 227.325 22.296C226.898 22.232 226.482 22.1893 226.077 22.168C225.693 22.1467 225.383 22.136 225.149 22.136C224.722 22.136 224.274 22.2213 223.805 22.392C223.357 22.5413 222.93 22.7653 222.525 23.064C222.119 23.3413 221.778 23.6613 221.501 24.024C221.245 24.3653 221.095 24.7067 221.053 25.048L219.741 34.392C219.698 34.6693 219.623 34.84 219.517 34.904C219.41 34.968 219.207 35 218.909 35H215.517Z" fill="#0F74C5"/>
<mask id="mask0_147_2" style="mask-type:alpha" maskUnits="userSpaceOnUse" x="0" y="0" width="41" height="41">
<path fill-rule="evenodd" clip-rule="evenodd" d="M20.5 0H0L20.5 20.5H0L20.5 41H41L20.5 20.5H41L20.5 0Z" fill="url(#paint0_linear_147_2)"/>
</mask>
<g mask="url(#mask0_147_2)">
<path fill-rule="evenodd" clip-rule="evenodd" d="M16.5 2H-4L16.5 22.5H-4L16.5 43H37L16.5 22.5H37L16.5 2Z" fill="url(#paint1_linear_147_2)"/>
</g>
<defs>
<linearGradient id="paint0_linear_147_2" x1="20.2025" y1="0.279999" x2="36.5" y2="38" gradientUnits="userSpaceOnUse">
<stop offset="0.254808" stop-color="white"/>
<stop offset="0.706731" stop-color="#058A3F"/>
</linearGradient>
<linearGradient id="paint1_linear_147_2" x1="0.2025" y1="5.28" x2="16.5" y2="43" gradientUnits="userSpaceOnUse">
<stop stop-color="#0F74C5"/>
<stop offset="1" stop-color="white"/>
</linearGradient>
</defs>
</svg>
