<svg width="24" height="24" viewBox="0 0 24 24" fill="none" xmlns="http://www.w3.org/2000/svg">
<path d="M21.0001 4.81884C21.0001 4.33645 20.8079 3.87386 20.4669 3.53271C20.1259 3.19172 19.6639 2.9997 19.1817 2.99951C18.6995 2.99945 18.2357 3.18998 17.8946 3.53076L17.8956 3.53174L4.54786 16.8823C4.43188 16.998 4.34589 17.1407 4.29786 17.2974L3.24903 20.7485L6.70606 19.7007L6.82032 19.6587C6.932 19.6092 7.0341 19.5394 7.1211 19.4526L20.4669 6.10498L20.5879 5.97119C20.8531 5.64764 21 5.2408 21.0001 4.81884ZM23.0001 4.81884C22.9999 5.76845 22.6463 6.68184 22.0118 7.38232L21.8809 7.51904L8.53321 20.8687C8.1855 21.2153 7.75781 21.4719 7.2881 21.6148L2.93458 22.9351L2.93165 22.936C2.67254 23.0139 2.39716 23.0195 2.13478 22.9536C1.87233 22.8876 1.63201 22.7522 1.44044 22.561C1.24881 22.3697 1.11235 22.1292 1.04591 21.8667C0.979599 21.6044 0.985109 21.3291 1.06251 21.0698L1.06446 21.0659L2.38478 16.7134L2.38575 16.7105L2.44532 16.5366C2.57442 16.1924 2.76589 15.8751 3.00978 15.6001L3.13575 15.4653L16.4805 2.11767L16.6182 1.98681C17.3188 1.35268 18.2322 0.999392 19.1817 0.999512C20.1944 0.999699 21.1659 1.40243 21.8819 2.11865C22.5978 2.83489 23.0002 3.80614 23.0001 4.81884Z" fill="white"/>
<path d="M14.293 4.29298C14.6591 3.92687 15.2381 3.90427 15.6309 4.22462L15.707 4.29298L19.707 8.29298L19.7754 8.36915C20.0957 8.76193 20.0731 9.34093 19.707 9.70705C19.3409 10.0731 18.7619 10.0957 18.3691 9.7754L18.293 9.70705L14.293 5.70705L14.2246 5.63087C13.9043 5.2381 13.9268 4.6591 14.293 4.29298Z" fill="white"/>
</svg>
